<svg xmlns="http://www.w3.org/2000/svg" xmlns:xlink="http://www.w3.org/1999/xlink" width="14.857" height="16" viewBox="0 0 14.857 16"><defs><style>.a{fill:#6d6d6d;}.b{clip-path:url(#a);}</style><clipPath id="a"><rect class="a" width="14.857" height="16"/></clipPath></defs><g class="b"><path class="a" d="M.571,2.857H3.486A2.28,2.28,0,0,0,5.714,4.571,2.331,2.331,0,0,0,7.943,2.857h6.343a.54.54,0,0,0,.571-.571.54.54,0,0,0-.571-.571H7.943A2.28,2.28,0,0,0,5.714,0,2.331,2.331,0,0,0,3.486,1.714H.571A.54.54,0,0,0,0,2.286a.54.54,0,0,0,.571.571M5.714,1.143A1.143,1.143,0,1,1,4.571,2.286,1.146,1.146,0,0,1,5.714,1.143"/><path class="a" d="M.571,12.857H7.486a2.28,2.28,0,0,0,2.229,1.714,2.331,2.331,0,0,0,2.229-1.714h2.343a.571.571,0,0,0,0-1.143H11.943A2.28,2.28,0,0,0,9.714,10a2.331,2.331,0,0,0-2.229,1.714H.571a.571.571,0,0,0,0,1.143m9.143-1.714a1.143,1.143,0,1,1-1.143,1.143,1.146,1.146,0,0,1,1.143-1.143" transform="translate(0 -4.286)"/><path class="a" d="M.571,22.857H3.486a2.28,2.28,0,0,0,2.229,1.714,2.331,2.331,0,0,0,2.229-1.714h6.343a.571.571,0,0,0,0-1.143H7.943A2.28,2.28,0,0,0,5.714,20a2.331,2.331,0,0,0-2.229,1.714H.571a.571.571,0,1,0,0,1.143m5.143-1.714a1.143,1.143,0,1,1-1.143,1.143,1.146,1.146,0,0,1,1.143-1.143" transform="translate(0 -8.571)"/></g></svg>