<svg xmlns="http://www.w3.org/2000/svg" xmlns:xlink="http://www.w3.org/1999/xlink" width="56" height="56" viewBox="0 0 56 56"><defs><style>.a{fill:#fff;}.b{fill:#373639;}.c{clip-path:url(#c);}.d{filter:url(#a);}</style><filter id="a" x="0" y="0" width="56" height="56" filterUnits="userSpaceOnUse"><feOffset dy="3" input="SourceAlpha"/><feGaussianBlur stdDeviation="3" result="b"/><feFlood flood-opacity="0.161"/><feComposite operator="in" in2="b"/><feComposite in="SourceGraphic"/></filter><clipPath id="c"><rect class="a" width="12.063" height="16"/></clipPath></defs><g transform="translate(-11 -513)"><g class="d" transform="matrix(1, 0, 0, 1, 11, 513)"><circle class="b" cx="19" cy="19" r="19" transform="translate(9 6)"/></g><g transform="translate(32.729 530)"><g class="c"><path class="a" d="M6.672.3,11.8,5.429a.891.891,0,0,1-1.261,1.261L6.924,3.076V15.109a.891.891,0,0,1-1.782,0V3.092l-3.613,3.6a.883.883,0,0,1-1.261,0A.918.918,0,0,1,0,6.05a.878.878,0,0,1,.269-.639L5.412.269A.918.918,0,0,1,6.05,0a1.141,1.141,0,0,1,.622.3" transform="translate(0 0)"/></g></g></g></svg>