<svg xmlns="http://www.w3.org/2000/svg" xmlns:xlink="http://www.w3.org/1999/xlink" width="15.319" height="16" viewBox="0 0 15.319 16"><defs><style>.a{fill:#6d6d6d;}.b{clip-path:url(#a);}</style><clipPath id="a"><rect class="a" width="15.319" height="16"/></clipPath></defs><g class="b"><path class="a" d="M10.99,6.32a.511.511,0,0,1,.511.511v7.406l2.953-2.859a.511.511,0,0,1,.71.734L11.3,15.856a.511.511,0,0,1-.722-.012L6.952,12.1a.511.511,0,1,1,.734-.71l2.793,2.888V6.831a.511.511,0,0,1,.511-.511M3.765.155A.511.511,0,0,1,4.488.144L8.355,3.888a.511.511,0,1,1-.71.734L4.692,1.763V9.169a.511.511,0,0,1-1.019.049l0-.049V1.722L.878,4.61A.51.51,0,0,1,.2,4.657L.156,4.622A.511.511,0,0,1,.144,3.9Z" transform="translate(0 0)"/></g></svg>